<svg xmlns="http://www.w3.org/2000/svg" width="200" height="200" viewBox="0 0 200 200"><path fill="#4c4c4c" d="M100 16L100 58L58 58ZM142 58L100 58L100 16ZM100 184L100 142L142 142ZM58 142L100 142L100 184ZM58 58L58 100L16 100ZM184 100L142 100L142 58ZM142 142L142 100L184 100ZM16 100L58 100L58 142Z"/><path fill="#e5e5e5" d="M58 37L37 58L16 37L37 16ZM163 58L142 37L163 16L184 37ZM142 163L163 142L184 163L163 184ZM37 142L58 163L37 184L16 163Z"/><path fill="#74cc66" d="M58 58L100 58L100 100L58 100ZM72 95L95 95L95 72L72 72ZM142 58L142 100L100 100L100 58ZM105 72L105 95L128 95L128 72ZM142 142L100 142L100 100L142 100ZM128 105L105 105L105 128L128 128ZM58 142L58 100L100 100L100 142ZM95 128L95 105L72 105L72 128Z"/></svg>