<svg xmlns="http://www.w3.org/2000/svg" width="100" height="100" viewBox="0 0 100 100"><path fill="#eaeaea" d="M29 29L29 8L50 8ZM50 8L71 8L71 29ZM71 71L71 92L50 92ZM50 92L29 92L29 71ZM8 50L8 29L29 29ZM71 29L92 29L92 50ZM92 50L92 71L71 71ZM29 71L8 71L8 50Z"/><path fill="#8d84d6" d="M29 18.5L18.5 29L8 18.5L18.5 8ZM81.5 29L71 18.5L81.5 8L92 18.5ZM71 81.5L81.5 71L92 81.5L81.5 92ZM18.5 71L29 81.5L18.5 92L8 81.5ZM50 39.5L50 50L39.5 50ZM60.5 50L50 50L50 39.5ZM50 60.5L50 50L60.5 50ZM39.5 50L50 50L50 60.5Z"/></svg>