<svg xmlns="http://www.w3.org/2000/svg" width="100" height="100" viewBox="0 0 100 100"><path fill="#4c4c4c" d="M50 8L50 29L29 29ZM71 29L50 29L50 8ZM50 92L50 71L71 71ZM29 71L50 71L50 92ZM29 29L29 50L8 50ZM92 50L71 50L71 29ZM71 71L71 50L92 50ZM8 50L29 50L29 71Z"/><path fill="#e5e5e5" d="M29 18.5L18.5 29L8 18.5L18.5 8ZM81.5 29L71 18.5L81.5 8L92 18.5ZM71 81.5L81.5 71L92 81.5L81.5 92ZM18.5 71L29 81.5L18.5 92L8 81.5Z"/><path fill="#74cc66" d="M29 29L50 29L50 50L29 50ZM36 48L48 48L48 36L36 36ZM71 29L71 50L50 50L50 29ZM52 36L52 48L64 48L64 36ZM71 71L50 71L50 50L71 50ZM64 52L52 52L52 64L64 64ZM29 71L29 50L50 50L50 71ZM48 64L48 52L36 52L36 64Z"/></svg>