<svg xmlns="http://www.w3.org/2000/svg" width="200" height="200" viewBox="0 0 200 200"><path fill="#e8bac6" d="M100 37L79 58L58 37L79 16ZM121 58L100 37L121 16L142 37ZM100 163L121 142L142 163L121 184ZM79 142L100 163L79 184L58 163ZM58 79L37 100L16 79L37 58ZM163 100L142 79L163 58L184 79ZM142 121L163 100L184 121L163 142ZM37 100L58 121L37 142L16 121Z"/><path fill="#a83855" d="M58 58L16 58L16 16ZM142 58L142 16L184 16ZM142 142L184 142L184 184ZM58 142L58 184L16 184Z"/><path fill="#d1758d" d="M58 58L100 58L100 79L58 79ZM58 79L79 79L79 100L58 100ZM100 79L79 100L79 79ZM142 58L142 100L121 100L121 58ZM121 58L121 79L100 79L100 58ZM121 100L100 79L121 79ZM142 142L100 142L100 121L142 121ZM142 121L121 121L121 100L142 100ZM100 121L121 100L121 121ZM58 142L58 100L79 100L79 142ZM79 142L79 121L100 121L100 142ZM79 100L100 121L79 121Z"/></svg>