<svg xmlns="http://www.w3.org/2000/svg" width="100" height="100" viewBox="0 0 100 100"><path fill="#e8badd" d="M29 18.5L39.5 8L50 18.5L39.5 29ZM60.5 8L71 18.5L60.5 29L50 18.5ZM71 81.5L60.5 92L50 81.5L60.5 71ZM39.5 92L29 81.5L39.5 71L50 81.5ZM8 39.5L18.5 29L29 39.5L18.5 50ZM81.5 29L92 39.5L81.5 50L71 39.5ZM92 60.5L81.5 71L71 60.5L81.5 50ZM18.5 71L8 60.5L18.5 50L29 60.5Z"/><path fill="#a8388d" d="M29 8L29 29L18.5 29ZM92 29L71 29L71 18.5ZM71 92L71 71L81.5 71ZM8 71L29 71L29 81.5Z"/><path fill="#d175bb" d="M29 29L50 29L50 50L29 50ZM34.3 42.1L42.1 50L50 42.1L42.1 34.3ZM71 29L71 50L50 50L50 29ZM57.9 34.3L50 42.1L57.9 50L65.8 42.1ZM71 71L50 71L50 50L71 50ZM65.8 57.9L57.9 50L50 57.9L57.9 65.8ZM29 71L29 50L50 50L50 71ZM42.1 65.8L50 57.9L42.1 50L34.3 57.9Z"/></svg>